<svg xmlns="http://www.w3.org/2000/svg" xmlns:xlink="http://www.w3.org/1999/xlink" version="1.1" x="0px" y="0px" viewBox="0 0 50 62.5" enable-background="new 0 0 50 50" xml:space="preserve"><g><path fill="#4b8799" d="M8.3,26H9c4.3-3.9,4.1-3.7,4.2-3.8H8.8V5.3h29.9v16.9h-4.4c0.1,0.1,0,0,4.3,3.8h0.7c1.9,0,3.5-1.6,3.5-3.5V5   c0-1.9-1.6-3.5-3.5-3.5h-31C6.4,1.5,4.8,3.1,4.8,5v17.5C4.8,24.5,6.4,26,8.3,26z"/><path fill="#38302f" d="M21.5,8.1c-1.7,0-3,1.3-3,3v6c0,1.7,1.3,3,3,3H26c1.7,0,3-1.3,3-3v-6c0-1.7-1.3-3-3-3H21.5z"/><path fill="#2e4052" d="M6.8,36.7c-0.9,0-1.8-0.4-2.5-1H2.7c-1,0-1.7,0.8-1.7,1.7c0,1,0.8,1.7,1.7,1.7h8.2v-3.5H9.4C9.2,35.8,8.4,36.7,6.8,36.7z"/><path fill="#2e4052" d="M47.3,35.7h-3.9c-0.7,0.6-1.6,1-2.5,1c-1.6,0-2.5-0.9-2.5-1h-1.6v3.5h10.6c1,0,1.7-0.8,1.7-1.7   C49,36.5,48.2,35.7,47.3,35.7z"/><path d="M14.9,25.6h17.7c2.2,0,4,1.8,4,4V33l2.5,2.1c1.1,0.9,2.7,0.8,3.7-0.2c1-1.1,1-2.7,0-3.8l-9-8c-0.6-0.5-1.4-0.8-2.2-0.8   h-3.9c1.7-0.6,2.1-1.6,2.2-2.2c0-0.2-0.1-0.4-0.4-0.4h-0.6c-0.7,0.9-1.8,1.5-3.1,1.5h-4.4c-1.3,0-2.4-0.6-3.1-1.5h-0.5   c-0.2,0-0.4,0.2-0.4,0.4c0.1,0.6,0.5,1.6,2.2,2.2h-3.8c-0.8,0-1.6,0.3-2.2,0.8l-8.9,8c-1,1.1-1,2.7,0,3.8c1,1,2.6,1.1,3.7,0.2   l2.4-2v-3.4C10.9,27.4,12.7,25.6,14.9,25.6z"/><path fill="#004080" d="M32.6,26.6H14.9c-1.7,0-3,1.3-3,3v10.2c0,1.7,1.3,3,3,3h5.2v-5.5c0-2,1.6-3.6,3.6-3.6h0.1c2,0,3.6,1.6,3.6,3.6v5.5h5.2   c1.7,0,3-1.3,3-3V29.6C35.6,28,34.3,26.6,32.6,26.6z"/><path d="M23.8,34.7h-0.1c-1.5,0-2.6,1.2-2.6,2.6v11.1h5.4V37.4C26.5,35.9,25.3,34.7,23.8,34.7z"/><rect x="4" y="40.2" width="2.7" height="8.1"/><rect x="43.3" y="40.2" width="2.7" height="8.1"/></g></svg>